<svg xmlns="http://www.w3.org/2000/svg" width="250" height="250" fill="none" stroke="rgba(1, 1, 1, 1)" stroke-linecap="round" stroke-linejoin="round" stroke-width="1.03" class="icon icon-tabler icon-tabler-bell" viewBox="0 0 24 24"><rect width="100%" height="100%" fill="rgba(255, 255, 255, 1)" stroke="none" rx="5" ry="5"/><path stroke="none" d="M2.4 2.4h19.2v19.2H2.4z"/><path stroke-width=".824" d="M10.4 6.4a1.6 1.6 0 0 1 3.2 0 5.6 5.6 0 0 1 3.2 4.8v2.4a3.2 3.2 0 0 0 1.6 2.4H5.6a3.2 3.2 0 0 0 1.6-2.4v-2.4a5.6 5.6 0 0 1 3.2-4.8M9.6 16v.8a2.4 2.4 0 0 0 4.8 0V16"/></svg>